<svg width="133" height="133" viewBox="0 0 133 133" fill="none" xmlns="http://www.w3.org/2000/svg">
<path d="M94.6226 41.9796L77.1924 59.4098L83.9241 66.1415L101.354 48.7113L94.6226 41.9796Z" fill="#FF3939"/>
<path d="M59.4027 77.1923L41.9725 94.6225L48.7041 101.354L66.1343 83.924L59.4027 77.1923Z" fill="#FF3939"/>
<path d="M83.5573 30.9096L66.1271 48.3398L72.8587 55.0715L90.2889 37.6413L83.5573 30.9096Z" fill="#FF3939"/>
<path d="M48.3274 66.1324L30.8972 83.5626L37.6288 90.2942L55.059 72.864L48.3274 66.1324Z" fill="#FF3939"/>
<path d="M37.6251 41.9616L30.8934 48.6932L48.3236 66.1234L55.0553 59.3918L37.6251 41.9616Z" fill="#FF3939"/>
<path d="M48.6951 30.8862L41.9634 37.6179L59.3936 55.0481L66.1253 48.3164L48.6951 30.8862Z" fill="#FF3939"/>
<path d="M83.9278 66.1162L77.1962 72.8479L94.6263 90.2781L101.358 83.5464L83.9278 66.1162Z" fill="#FF3939"/>
<path d="M72.8578 77.1916L66.1262 83.9233L83.5563 101.353L90.288 94.6218L72.8578 77.1916Z" fill="#FF3939"/>
<path d="M90.29 108.09L83.55 101.36L66.1299 118.78L48.7 101.36L41.97 108.09L66.1299 132.25L90.29 108.09Z" fill="#FF3939"/>
<path d="M30.9 48.7L24.16 41.97L0 66.13L24.16 90.28L30.9 83.55L13.47 66.13L30.9 48.7Z" fill="#FF3939"/>
<path d="M108.09 41.97L101.36 48.7L118.78 66.13L101.36 83.55L108.09 90.28L132.25 66.13L108.09 41.97Z" fill="#FF3939"/>
<path d="M83.55 30.9L90.29 24.16L66.1299 0L41.97 24.16L48.7 30.9L66.1299 13.47L83.55 30.9Z" fill="#FF3939"/>
</svg>
