<svg width="214" height="133" viewBox="0 0 214 133" fill="none" xmlns="http://www.w3.org/2000/svg">
<path d="M94.6226 41.9796L77.1924 59.4098L83.9241 66.1415L101.354 48.7113L94.6226 41.9796Z" fill="#FF3939"/>
<path d="M59.4027 77.1923L41.9725 94.6225L48.7041 101.354L66.1343 83.924L59.4027 77.1923Z" fill="#FF3939"/>
<path d="M83.5573 30.9096L66.1271 48.3398L72.8587 55.0715L90.2889 37.6413L83.5573 30.9096Z" fill="#FF3939"/>
<path d="M48.3274 66.1324L30.8972 83.5626L37.6288 90.2942L55.059 72.864L48.3274 66.1324Z" fill="#FF3939"/>
<path d="M37.6251 41.9616L30.8934 48.6932L48.3236 66.1234L55.0553 59.3918L37.6251 41.9616Z" fill="#FF3939"/>
<path d="M48.6951 30.8862L41.9634 37.6179L59.3936 55.0481L66.1253 48.3164L48.6951 30.8862Z" fill="#FF3939"/>
<path d="M83.9278 66.1162L77.1962 72.8479L94.6263 90.2781L101.358 83.5464L83.9278 66.1162Z" fill="#FF3939"/>
<path d="M72.8578 77.1916L66.1262 83.9233L83.5563 101.353L90.288 94.6218L72.8578 77.1916Z" fill="#FF3939"/>
<path d="M90.29 108.09L83.55 101.36L66.1299 118.78L48.7 101.36L41.97 108.09L66.1299 132.25L90.29 108.09Z" fill="#FF3939"/>
<path d="M30.9 48.7L24.16 41.97L0 66.13L24.16 90.28L30.9 83.55L13.47 66.13L30.9 48.7Z" fill="#FF3939"/>
<path d="M108.09 41.97L101.36 48.7L118.78 66.13L101.36 83.55L108.09 90.28L132.25 66.13L108.09 41.97Z" fill="#FF3939"/>
<path d="M83.55 30.9L90.29 24.16L66.1299 0L41.97 24.16L48.7 30.9L66.1299 13.47L83.55 30.9Z" fill="#FF3939"/>
<path d="M96.996 104H96.42V100.928L93.192 95.42H93.888L96.384 99.764C96.528 100.02 96.648 100.244 96.744 100.436C96.776 100.332 96.888 100.116 97.08 99.788L99.576 95.42H100.236L96.996 100.952V104ZM105.021 104.12C103.909 104.12 102.977 103.732 102.225 102.956C101.473 102.18 101.097 101.232 101.097 100.112C101.097 98.984 101.473 98.032 102.225 97.256C102.977 96.48 103.909 96.092 105.021 96.092C106.133 96.092 107.065 96.48 107.817 97.256C108.569 98.032 108.945 98.984 108.945 100.112C108.945 101.232 108.569 102.18 107.817 102.956C107.065 103.732 106.133 104.12 105.021 104.12ZM105.021 96.584C104.061 96.584 103.261 96.924 102.621 97.604C101.989 98.284 101.673 99.12 101.673 100.112C101.673 101.096 101.989 101.928 102.621 102.608C103.261 103.28 104.061 103.616 105.021 103.616C105.989 103.616 106.789 103.28 107.421 102.608C108.053 101.928 108.369 101.096 108.369 100.112C108.369 99.12 108.053 98.284 107.421 97.604C106.789 96.924 105.989 96.584 105.021 96.584ZM116.894 103.196C116.366 103.812 115.562 104.12 114.482 104.12C113.402 104.12 112.598 103.812 112.07 103.196C111.542 102.58 111.278 101.728 111.278 100.64V96.212H111.83V100.64C111.83 102.632 112.714 103.628 114.482 103.628C116.25 103.628 117.134 102.632 117.134 100.64V96.212H117.686V100.64C117.686 101.728 117.422 102.58 116.894 103.196ZM121.883 96.704H119.243V96.212H125.063V96.704H122.423V104H121.883V96.704ZM132.234 103.196C131.706 103.812 130.902 104.12 129.822 104.12C128.742 104.12 127.938 103.812 127.41 103.196C126.882 102.58 126.618 101.728 126.618 100.64V96.212H127.17V100.64C127.17 102.632 128.054 103.628 129.822 103.628C131.59 103.628 132.474 102.632 132.474 100.64V96.212H133.026V100.64C133.026 101.728 132.762 102.58 132.234 103.196ZM135.819 96.248C136.387 96.2 136.971 96.176 137.571 96.176C138.171 96.176 138.683 96.32 139.107 96.608C139.539 96.896 139.755 97.316 139.755 97.868C139.755 98.284 139.643 98.668 139.419 99.02C139.195 99.372 138.923 99.64 138.603 99.824C139.123 99.976 139.555 100.248 139.899 100.64C140.243 101.032 140.415 101.476 140.415 101.972C140.415 102.66 140.195 103.18 139.755 103.532C139.323 103.884 138.711 104.06 137.919 104.06C137.127 104.06 136.427 104.032 135.819 103.976V96.248ZM136.911 100.064L136.371 100.076V103.52C136.715 103.552 137.271 103.568 138.039 103.568C138.559 103.568 138.987 103.424 139.323 103.136C139.667 102.84 139.839 102.472 139.839 102.032C139.839 101.584 139.667 101.196 139.323 100.868C138.987 100.532 138.547 100.296 138.003 100.16C137.723 100.096 137.359 100.064 136.911 100.064ZM139.215 97.856C139.215 97.464 139.051 97.164 138.723 96.956C138.395 96.74 138.003 96.632 137.547 96.632C137.091 96.632 136.699 96.644 136.371 96.668V99.608C137.067 99.608 137.623 99.628 138.039 99.668C138.351 99.5 138.623 99.256 138.855 98.936C139.095 98.608 139.215 98.248 139.215 97.856ZM142.698 104V96.212H146.334V96.692H143.25V99.524H146.034V99.992H143.25V103.496H146.454V104H142.698ZM149.047 101.3L147.931 104H147.367L150.631 96.164H150.955L154.243 104H153.631L152.503 101.3H149.047ZM150.763 97.052C150.643 97.412 150.535 97.712 150.439 97.952L149.239 100.832H152.311L151.123 97.964C150.939 97.516 150.819 97.212 150.763 97.052ZM158.319 103.592C159.343 103.592 160.163 103.316 160.779 102.764C161.403 102.212 161.715 101.38 161.715 100.268C161.715 99.156 161.363 98.272 160.659 97.616C159.963 96.96 159.103 96.632 158.079 96.632C157.351 96.632 156.791 96.648 156.399 96.68V103.508C156.879 103.564 157.519 103.592 158.319 103.592ZM158.079 96.14C159.279 96.14 160.279 96.512 161.079 97.256C161.887 97.992 162.291 98.996 162.291 100.268C162.291 101.54 161.919 102.496 161.175 103.136C160.439 103.776 159.487 104.096 158.319 104.096C157.511 104.096 156.679 104.056 155.823 103.976V96.212C156.463 96.164 157.215 96.14 158.079 96.14ZM164.682 96.248C165.25 96.2 165.834 96.176 166.434 96.176C167.034 96.176 167.546 96.32 167.97 96.608C168.402 96.896 168.618 97.316 168.618 97.868C168.618 98.284 168.506 98.668 168.282 99.02C168.058 99.372 167.786 99.64 167.466 99.824C167.986 99.976 168.418 100.248 168.762 100.64C169.106 101.032 169.278 101.476 169.278 101.972C169.278 102.66 169.058 103.18 168.618 103.532C168.186 103.884 167.574 104.06 166.782 104.06C165.99 104.06 165.29 104.032 164.682 103.976V96.248ZM165.774 100.064L165.234 100.076V103.52C165.578 103.552 166.134 103.568 166.902 103.568C167.422 103.568 167.85 103.424 168.186 103.136C168.53 102.84 168.702 102.472 168.702 102.032C168.702 101.584 168.53 101.196 168.186 100.868C167.85 100.532 167.41 100.296 166.866 100.16C166.586 100.096 166.222 100.064 165.774 100.064ZM168.078 97.856C168.078 97.464 167.914 97.164 167.586 96.956C167.258 96.74 166.866 96.632 166.41 96.632C165.954 96.632 165.562 96.644 165.234 96.668V99.608C165.93 99.608 166.486 99.628 166.902 99.668C167.214 99.5 167.486 99.256 167.718 98.936C167.958 98.608 168.078 98.248 168.078 97.856ZM171.561 104V96.212H172.113V103.496H175.689V104H171.561ZM180.29 104.12C179.178 104.12 178.246 103.732 177.494 102.956C176.742 102.18 176.366 101.232 176.366 100.112C176.366 98.984 176.742 98.032 177.494 97.256C178.246 96.48 179.178 96.092 180.29 96.092C181.402 96.092 182.334 96.48 183.086 97.256C183.838 98.032 184.214 98.984 184.214 100.112C184.214 101.232 183.838 102.18 183.086 102.956C182.334 103.732 181.402 104.12 180.29 104.12ZM180.29 96.584C179.33 96.584 178.53 96.924 177.89 97.604C177.258 98.284 176.942 99.12 176.942 100.112C176.942 101.096 177.258 101.928 177.89 102.608C178.53 103.28 179.33 103.616 180.29 103.616C181.258 103.616 182.058 103.28 182.69 102.608C183.322 101.928 183.638 101.096 183.638 100.112C183.638 99.12 183.322 98.284 182.69 97.604C182.058 96.924 181.258 96.584 180.29 96.584ZM192.68 103.616C192.08 103.952 191.244 104.12 190.172 104.12C189.108 104.12 188.168 103.736 187.352 102.968C186.544 102.2 186.14 101.248 186.14 100.112C186.14 98.968 186.492 98.012 187.196 97.244C187.908 96.476 188.824 96.092 189.944 96.092C190.848 96.092 191.732 96.232 192.596 96.512L192.452 96.968C191.62 96.712 190.76 96.584 189.872 96.584C188.984 96.584 188.236 96.924 187.628 97.604C187.028 98.276 186.728 99.104 186.728 100.088C186.728 101.064 187.076 101.896 187.772 102.584C188.476 103.272 189.288 103.616 190.208 103.616C191.128 103.616 191.892 103.488 192.5 103.232L192.68 103.616ZM199.375 96.212L196.051 99.968C197.363 101.56 198.259 102.568 198.739 102.992C199.227 103.416 199.711 103.656 200.191 103.712L200.179 104.084C199.731 104.076 199.367 104.012 199.087 103.892C198.807 103.764 198.559 103.596 198.343 103.388C198.127 103.18 197.663 102.672 196.951 101.864C196.247 101.048 195.719 100.424 195.367 99.992L198.715 96.212H199.375ZM195.199 96.212V104H194.647V96.212H195.199ZM201.444 104V96.212H205.08V96.692H201.996V99.524H204.78V99.992H201.996V103.496H205.2V104H201.444ZM207.409 104V96.248C208.097 96.192 208.681 96.164 209.161 96.164C209.897 96.164 210.505 96.356 210.985 96.74C211.465 97.116 211.705 97.656 211.705 98.36C211.705 98.832 211.569 99.268 211.297 99.668C211.025 100.068 210.717 100.392 210.373 100.64C211.325 101.904 211.913 102.66 212.137 102.908C212.593 103.38 213.089 103.648 213.625 103.712L213.613 104.084C213.165 104.076 212.801 104.012 212.521 103.892C212.241 103.764 211.961 103.552 211.681 103.256C211.409 102.96 210.805 102.164 209.869 100.868C209.221 100.868 208.585 100.848 207.961 100.808V104H207.409ZM209.569 100.412C209.881 100.412 210.217 100.204 210.577 99.788C210.937 99.372 211.117 98.888 211.117 98.336C211.117 97.784 210.929 97.364 210.553 97.076C210.177 96.788 209.689 96.644 209.089 96.644C208.769 96.644 208.393 96.66 207.961 96.692V100.352C208.537 100.392 209.073 100.412 209.569 100.412Z" fill="white"/>
</svg>
