<svg width="90" height="91" viewBox="0 0 90 91" fill="none" xmlns="http://www.w3.org/2000/svg">
<path d="M89.4041 45.0355C89.4041 69.5792 69.5233 89.475 45 89.475C20.4767 89.475 0.595895 69.5792 0.595895 45.0355C0.595895 20.4917 20.4767 0.595895 45 0.595895C69.5233 0.595895 89.4041 20.4917 89.4041 45.0355Z" fill="#D33434" stroke="white" stroke-width="1.19179"/>
<path d="M73.6467 45.2881L51.9008 58.6737M51.9008 58.6737L37.3752 67.2882C37.025 67.4958 36.582 67.2435 36.582 66.8364L36.582 49.7446C36.582 49.4697 36.8843 49.302 37.1176 49.4476L51.9008 58.6737Z" stroke="white" stroke-width="1.92579" stroke-linecap="round"/>
<path d="M36.6953 34.2939L50.7668 41.4029C51.9761 42.0139 53.3912 41.0787 53.3033 39.7267L52.8019 32.0179M52.8019 32.0179L36.6953 23.0017M52.8019 32.0179L69.9191 42.4926C70.1397 42.6276 70.1428 42.9471 69.9248 43.0863L64.0941 46.8115" stroke="white" stroke-width="1.92579" stroke-linecap="round"/>
<path d="M32.1758 22.4058V66.0253" stroke="white" stroke-width="1.66851" stroke-linecap="round"/>
</svg>
