<svg width="263" height="112" viewBox="0 0 263 112" fill="none" xmlns="http://www.w3.org/2000/svg">
<path d="M63.75 14.79C65.63 17.43 67.15 20.34 68.24 23.46C69.6 23.64 70.95 23.89 72.26 24.2C72.48 24.25 72.7 24.31 72.92 24.36C72.97 24.37 73.03 24.39 73.08 24.4C73.36 24.47 73.64 24.55 73.92 24.63C73.92 24.63 73.92 24.63 73.93 24.63C74.2 24.7 74.47 24.78 74.73 24.87C74.96 24.94 75.19 25.01 75.42 25.09C75.66 25.17 75.89 25.25 76.13 25.33C76.35 25.4 76.57 25.48 76.79 25.57C77.01 25.65 77.22 25.73 77.44 25.82C78.71 26.31 79.95 26.87 81.15 27.49C81.44 27.64 81.72 27.78 82 27.94C82.48 28.2 82.95 28.47 83.42 28.75C83.62 28.87 83.82 28.99 84.01 29.11C84.1 29.16 84.2 29.22 84.29 29.28C84.5 29.41 84.71 29.55 84.91 29.69C85.11 29.82 85.31 29.95 85.5 30.09C87.8 31.66 89.92 33.48 91.84 35.49C92.07 35.72 92.28 35.95 92.49 36.19C92.67 36.38 92.84 36.58 93.01 36.77C93.29 37.09 93.56 37.41 93.83 37.74C94 37.93 94.15 38.13 94.31 38.33C94.52 38.6 94.73 38.87 94.93 39.14C95.12 39.4 95.31 39.66 95.49 39.92C95.68 40.18 95.86 40.44 96.04 40.71C96.4 41.24 96.74 41.77 97.07 42.32C97.24 42.59 97.4 42.87 97.56 43.15C97.72 43.43 97.88 43.71 98.03 43.99C98.36 44.6 98.68 45.22 98.97 45.84C99.09 46.09 99.21 46.34 99.32 46.59C99.43 46.84 99.54 47.09 99.65 47.34C99.75 47.56 99.84 47.78 99.93 48.01C100.01 48.22 100.1 48.42 100.18 48.63C100.38 49.15 100.58 49.68 100.75 50.21C100.86 50.52 100.96 50.83 101.05 51.14C101.05 51.14 101.05 51.16 101.06 51.18C101.15 51.48 101.24 51.78 101.32 52.08C101.57 52.94 101.78 53.81 101.97 54.69C102.02 54.91 102.06 55.14 102.11 55.36C102.13 55.49 102.16 55.62 102.18 55.74C102.21 55.91 102.24 56.08 102.27 56.26C102.31 56.51 102.35 56.75 102.39 57C102.43 57.25 102.47 57.5 102.5 57.75C102.51 57.86 102.53 57.97 102.54 58.08C102.56 58.26 102.58 58.45 102.6 58.63C102.62 58.81 102.64 58.98 102.65 59.16C102.68 59.43 102.7 59.7 102.72 59.97C102.74 60.29 102.76 60.61 102.78 60.93C102.8 61.27 102.81 61.61 102.82 61.95C102.82 62.29 102.83 62.63 102.83 62.97C102.83 84.93 84.96 102.8 63 102.8C62.66 102.8 62.31 102.8 61.97 102.79C61.63 102.79 61.29 102.77 60.95 102.75C60.62 102.74 60.28 102.72 59.95 102.69H59.91C59.6 102.67 59.29 102.64 58.98 102.61C58.71 102.58 58.45 102.55 58.18 102.52C58.01 102.5 57.85 102.48 57.68 102.46C57.44 102.43 57.21 102.4 56.98 102.36C56.96 102.36 56.94 102.36 56.92 102.36C56.68 102.33 56.45 102.29 56.22 102.25C56.02 102.22 55.82 102.18 55.63 102.14C55.34 102.09 55.05 102.03 54.77 101.97C53.22 101.64 51.69 101.22 50.2 100.71C49.91 100.61 49.62 100.51 49.33 100.4C49.05 100.3 48.77 100.19 48.48 100.08C48.1 99.93 47.72 99.77 47.34 99.61C47.1 99.51 46.86 99.41 46.63 99.3C46.38 99.19 46.12 99.06 45.86 98.94C45.54 98.78 45.21 98.63 44.89 98.46C44.63 98.32 44.36 98.19 44.1 98.04C43.8 97.87 43.5 97.71 43.2 97.53C42.92 97.37 42.65 97.21 42.37 97.04C42.37 97.04 42.36 97.04 42.35 97.04C41.84 96.74 41.35 96.42 40.86 96.09C40.82 96.07 40.78 96.04 40.75 96.01C40.49 95.83 40.23 95.65 39.97 95.47C39.71 95.29 39.45 95.1 39.2 94.91C38.94 94.72 38.69 94.53 38.44 94.33C38.23 94.17 38.03 94.01 37.83 93.84C37.51 93.58 37.19 93.31 36.87 93.04C36.66 92.86 36.45 92.67 36.25 92.49C36.01 92.27 35.78 92.06 35.55 91.83C35.32 91.61 35.09 91.39 34.86 91.16C34.42 90.72 33.99 90.27 33.57 89.81C33.35 89.56 33.12 89.31 32.91 89.06C32.49 88.58 32.09 88.1 31.7 87.6C31.46 87.3 31.23 86.99 31 86.68C30.86 86.5 30.73 86.32 30.6 86.13C30.56 86.07 30.51 86.01 30.47 85.95C30.31 85.72 30.15 85.49 29.99 85.26C29.83 85.03 29.69 84.81 29.54 84.58C29.33 84.26 29.12 83.93 28.92 83.6C28.6 83.07 28.29 82.53 27.99 81.98C27.41 80.93 26.89 79.84 26.41 78.72C26.3 78.46 26.19 78.21 26.09 77.95C26.09 77.95 26.09 77.93 26.08 77.91C26 77.71 25.92 77.52 25.85 77.33C25.78 77.15 25.71 76.97 25.64 76.79C25.57 76.6 25.5 76.41 25.44 76.22C25.34 75.95 25.25 75.68 25.16 75.41C25.07 75.14 24.98 74.86 24.9 74.58C24.89 74.56 24.88 74.53 24.88 74.5C24.8 74.24 24.72 73.96 24.64 73.69C24.56 73.4 24.48 73.11 24.4 72.82C24.18 71.94 23.98 71.05 23.82 70.16C23.77 69.86 23.72 69.56 23.67 69.26C23.62 68.96 23.58 68.66 23.54 68.35C20.42 67.27 17.5 65.75 14.85 63.88C15.3 90.09 36.69 111.2 63.01 111.2C89.33 111.2 111.18 89.64 111.18 63.03C111.18 36.42 90 15.25 63.73 14.87L63.75 14.79ZM23.39 59.17C23.42 58.88 23.45 58.58 23.48 58.29C23.51 58 23.55 57.7 23.59 57.41C23.63 57.12 23.67 56.83 23.72 56.54C23.76 56.25 23.82 55.96 23.87 55.68C24.09 54.53 24.35 53.39 24.66 52.28C24.73 52.01 24.82 51.73 24.9 51.45C24.96 51.23 25.03 51.02 25.1 50.8C25.12 50.71 25.15 50.61 25.19 50.53C25.27 50.29 25.35 50.05 25.44 49.81C25.51 49.6 25.58 49.39 25.67 49.18C25.72 49.05 25.77 48.92 25.82 48.79C26 48.32 26.18 47.87 26.37 47.41C26.6 46.88 26.83 46.35 27.09 45.83C27.21 45.58 27.33 45.33 27.45 45.09C27.52 44.93 27.61 44.78 27.69 44.62C27.78 44.43 27.88 44.25 27.98 44.07C28.01 44.01 28.05 43.94 28.09 43.88C28.22 43.63 28.36 43.39 28.5 43.14C28.63 42.92 28.76 42.7 28.88 42.48C29 42.29 29.11 42.1 29.23 41.92C29.34 41.75 29.45 41.58 29.56 41.4C30.02 40.69 30.5 39.99 31 39.32C31.17 39.09 31.34 38.87 31.51 38.64C31.64 38.47 31.77 38.3 31.91 38.13C32.31 37.63 32.72 37.13 33.15 36.65C33.32 36.45 33.5 36.25 33.68 36.06C34.06 35.64 34.45 35.24 34.85 34.84C35.01 34.68 35.17 34.52 35.34 34.36C35.6 34.11 35.85 33.86 36.11 33.63C36.3 33.45 36.49 33.28 36.69 33.11C37.04 32.8 37.4 32.5 37.75 32.2C37.93 32.05 38.12 31.9 38.3 31.75C39.1 31.11 39.93 30.5 40.78 29.93C41.02 29.76 41.27 29.6 41.52 29.44C41.72 29.31 41.91 29.19 42.11 29.07C42.26 28.98 42.41 28.88 42.56 28.8C42.78 28.66 43 28.53 43.23 28.41C43.51 28.24 43.79 28.09 44.07 27.94C44.35 27.78 44.64 27.63 44.92 27.49C45.2 27.34 45.49 27.2 45.78 27.06C45.8 27.06 45.81 27.05 45.83 27.04C46.34 26.79 46.86 26.56 47.38 26.33C47.77 26.16 48.16 26 48.56 25.85C48.82 25.74 49.08 25.64 49.35 25.55C49.58 25.46 49.82 25.38 50.05 25.3C50.17 25.26 50.29 25.22 50.41 25.17C50.67 25.09 50.93 25 51.19 24.92C51.5 24.82 51.81 24.73 52.13 24.64C52.44 24.55 52.76 24.46 53.08 24.38C53.36 24.31 53.64 24.24 53.92 24.17C54.13 24.12 54.35 24.07 54.56 24.03C54.65 24.01 54.75 23.99 54.84 23.97C55 23.94 55.16 23.91 55.33 23.87C55.61 23.82 55.9 23.76 56.18 23.71C56.39 23.68 56.59 23.64 56.79 23.61C57.01 23.57 57.22 23.54 57.44 23.51C58 23.43 58.56 23.36 59.13 23.31C57.73 20.46 55.82 17.89 53.54 15.71C34.5 19.52 19.51 34.54 15.77 53.6C17.95 55.88 20.52 57.77 23.38 59.17H23.39Z" fill="#FF3939"/>
<path d="M69.63 28.65C67.49 28.24 65.29 28.02 63.03 28.02C62.33 28.02 61.63 28.04 60.95 28.08C61.56 30.32 61.89 32.68 61.89 35.1C61.89 49.86 49.88 61.87 35.12 61.87C32.72 61.87 30.39 61.55 28.18 60.95C28.15 61.61 28.13 62.26 28.13 62.93C28.13 65.22 28.35 67.46 28.78 69.63C30.84 70.01 32.96 70.2 35.14 70.2C54.53 70.2 70.25 54.48 70.25 35.09C70.25 32.88 70.04 30.73 69.66 28.63L69.63 28.65ZM35.11 0C15.72 0 0 15.72 0 35.11C0 44.69 3.83999 53.37 10.05 59.7C10.28 55.87 10.91 52.12 11.93 48.5C9.63999 44.56 8.34003 39.98 8.34003 35.11C8.34003 20.35 20.35 8.34 35.11 8.34C39.96 8.34 44.52 9.62999 48.44 11.9C52.06 10.87 55.8 10.23 59.63 9.99C53.31 3.81 44.65 0 35.11 0Z" fill="white"/>
<path d="M128.624 60H128.084V57.216L125.144 52.212H125.804L128.072 56.076C128.248 56.428 128.348 56.616 128.372 56.64C128.42 56.536 128.52 56.352 128.672 56.088L130.94 52.212H131.564L128.624 57.24V60ZM136.4 60.12C135.288 60.12 134.356 59.732 133.604 58.956C132.852 58.18 132.476 57.232 132.476 56.112C132.476 54.984 132.852 54.032 133.604 53.256C134.356 52.48 135.288 52.092 136.4 52.092C137.512 52.092 138.444 52.48 139.196 53.256C139.948 54.032 140.324 54.984 140.324 56.112C140.324 57.232 139.948 58.18 139.196 58.956C138.444 59.732 137.512 60.12 136.4 60.12ZM136.4 52.584C135.44 52.584 134.64 52.924 134 53.604C133.368 54.284 133.052 55.12 133.052 56.112C133.052 57.096 133.368 57.928 134 58.608C134.64 59.28 135.44 59.616 136.4 59.616C137.368 59.616 138.168 59.28 138.8 58.608C139.432 57.928 139.748 57.096 139.748 56.112C139.748 55.12 139.432 54.284 138.8 53.604C138.168 52.924 137.368 52.584 136.4 52.584ZM148.273 59.196C147.745 59.812 146.941 60.12 145.861 60.12C144.781 60.12 143.977 59.812 143.449 59.196C142.921 58.58 142.657 57.728 142.657 56.64V52.212H143.209V56.64C143.209 58.632 144.093 59.628 145.861 59.628C147.629 59.628 148.513 58.632 148.513 56.64V52.212H149.065V56.64C149.065 57.728 148.801 58.58 148.273 59.196ZM153.262 52.704H150.622V52.212H156.442V52.704H153.802V60H153.262V52.704ZM163.613 59.196C163.085 59.812 162.281 60.12 161.201 60.12C160.121 60.12 159.317 59.812 158.789 59.196C158.261 58.58 157.997 57.728 157.997 56.64V52.212H158.549V56.64C158.549 58.632 159.433 59.628 161.201 59.628C162.969 59.628 163.853 58.632 163.853 56.64V52.212H164.405V56.64C164.405 57.728 164.141 58.58 163.613 59.196ZM167.198 52.248C167.766 52.2 168.35 52.176 168.95 52.176C169.55 52.176 170.062 52.32 170.486 52.608C170.918 52.896 171.134 53.316 171.134 53.868C171.134 54.284 171.022 54.668 170.798 55.02C170.574 55.372 170.302 55.64 169.982 55.824C170.502 55.976 170.934 56.248 171.278 56.64C171.622 57.032 171.794 57.476 171.794 57.972C171.794 58.66 171.574 59.18 171.134 59.532C170.702 59.884 170.09 60.06 169.298 60.06C168.506 60.06 167.806 60.032 167.198 59.976V52.248ZM168.29 56.064L167.75 56.076V59.52C168.094 59.552 168.65 59.568 169.418 59.568C169.938 59.568 170.366 59.424 170.702 59.136C171.046 58.84 171.218 58.472 171.218 58.032C171.218 57.584 171.046 57.196 170.702 56.868C170.366 56.532 169.926 56.296 169.382 56.16C169.102 56.096 168.738 56.064 168.29 56.064ZM170.594 53.856C170.594 53.464 170.43 53.164 170.102 52.956C169.774 52.74 169.382 52.632 168.926 52.632C168.47 52.632 168.078 52.644 167.75 52.668V55.608C168.446 55.608 169.002 55.628 169.418 55.668C169.73 55.5 170.002 55.256 170.234 54.936C170.474 54.608 170.594 54.248 170.594 53.856ZM174.077 60V52.212H177.713V52.692H174.629V55.524H177.413V55.992H174.629V59.496H177.833V60H174.077ZM186.346 58.104L188.59 52.368H188.938L190.894 58.14L191.182 59.112C191.206 58.96 191.306 58.64 191.482 58.152L193.474 52.212H194.05L191.338 60.048H191.014C189.678 56.216 188.986 54.224 188.938 54.072C188.866 53.856 188.794 53.644 188.722 53.436C188.682 53.572 188.574 53.856 188.398 54.288L186.13 60.048H185.806L183.07 52.212H183.682L185.662 58.056C185.774 58.376 185.878 58.732 185.974 59.124C186.014 58.964 186.138 58.624 186.346 58.104ZM195.543 57.3L194.427 60H193.863L197.127 52.164H197.451L200.739 60H200.127L198.999 57.3H195.543ZM197.259 53.052C197.139 53.412 197.031 53.712 196.935 53.952L195.735 56.832H198.807L197.619 53.964C197.435 53.516 197.315 53.212 197.259 53.052ZM202.973 52.704H200.333V52.212H206.153V52.704H203.513V60H202.973V52.704ZM213.57 59.616C212.97 59.952 212.134 60.12 211.062 60.12C209.998 60.12 209.058 59.736 208.242 58.968C207.434 58.2 207.03 57.248 207.03 56.112C207.03 54.968 207.382 54.012 208.086 53.244C208.798 52.476 209.714 52.092 210.834 52.092C211.738 52.092 212.622 52.232 213.486 52.512L213.342 52.968C212.51 52.712 211.65 52.584 210.762 52.584C209.874 52.584 209.126 52.924 208.518 53.604C207.918 54.276 207.618 55.104 207.618 56.088C207.618 57.064 207.966 57.896 208.662 58.584C209.366 59.272 210.178 59.616 211.098 59.616C212.018 59.616 212.782 59.488 213.39 59.232L213.57 59.616ZM221.502 60V56.064H216.09V60H215.538V52.212H216.09V55.572H221.502V52.212H222.054V60H221.502ZM229.26 60V52.26C229.86 52.196 230.492 52.164 231.156 52.164C231.828 52.164 232.396 52.344 232.86 52.704C233.324 53.056 233.556 53.592 233.556 54.312C233.556 55.032 233.24 55.624 232.608 56.088C231.976 56.544 231.228 56.772 230.364 56.772C230.324 56.772 230.28 56.772 230.232 56.772V56.388C230.264 56.388 230.292 56.388 230.316 56.388C231.028 56.388 231.648 56.2 232.176 55.824C232.704 55.448 232.968 54.96 232.968 54.36C232.968 53.76 232.78 53.324 232.404 53.052C232.036 52.78 231.548 52.644 230.94 52.644C230.62 52.644 230.244 52.66 229.812 52.692V60H229.26ZM235.504 57.3L234.388 60H233.824L237.088 52.164H237.412L240.7 60H240.088L238.96 57.3H235.504ZM237.22 53.052C237.1 53.412 236.992 53.712 236.896 53.952L235.696 56.832H238.768L237.58 53.964C237.396 53.516 237.276 53.212 237.22 53.052ZM242.28 60V52.248C242.968 52.192 243.552 52.164 244.032 52.164C244.768 52.164 245.376 52.356 245.856 52.74C246.336 53.116 246.576 53.656 246.576 54.36C246.576 54.832 246.44 55.268 246.168 55.668C245.896 56.068 245.588 56.392 245.244 56.64C246.196 57.904 246.784 58.66 247.008 58.908C247.464 59.38 247.96 59.648 248.496 59.712L248.484 60.084C248.036 60.076 247.672 60.012 247.392 59.892C247.112 59.764 246.832 59.552 246.552 59.256C246.28 58.96 245.676 58.164 244.74 56.868C244.092 56.868 243.456 56.848 242.832 56.808V60H242.28ZM244.44 56.412C244.752 56.412 245.088 56.204 245.448 55.788C245.808 55.372 245.988 54.888 245.988 54.336C245.988 53.784 245.8 53.364 245.424 53.076C245.048 52.788 244.56 52.644 243.96 52.644C243.64 52.644 243.264 52.66 242.832 52.692V56.352C243.408 56.392 243.944 56.412 244.44 56.412ZM250.41 52.704H247.77V52.212H253.59V52.704H250.95V60H250.41V52.704ZM257.401 60H256.861V57.216L253.921 52.212H254.581L256.849 56.076C257.025 56.428 257.125 56.616 257.149 56.64C257.197 56.536 257.297 56.352 257.449 56.088L259.717 52.212H260.341L257.401 57.24V60Z" fill="white"/>
<path d="M128.84 72V67.457H130.961V67.737H129.162V69.389H130.786V69.662H129.162V71.706H131.031V72H128.84ZM132.319 72V67.429H132.473L135.455 70.859C135.563 70.9803 135.661 71.1017 135.749 71.223C135.843 71.3397 135.892 71.4003 135.896 71.405C135.887 71.293 135.882 71.0737 135.882 70.747V67.457H136.204V72.028H136.05L133.012 68.542L132.627 68.073C132.637 68.1663 132.641 68.3857 132.641 68.731V72H132.319ZM137.884 71.482V67.457H138.199V71.279C138.199 71.657 138.141 71.9907 138.024 72.28C137.907 72.5693 137.772 72.7933 137.618 72.952C137.464 73.1107 137.266 73.2763 137.023 73.449L136.876 73.239C137.548 72.749 137.884 72.1633 137.884 71.482ZM141.848 72.07C141.199 72.07 140.656 71.8437 140.217 71.391C139.778 70.9383 139.559 70.3853 139.559 69.732C139.559 69.074 139.778 68.5187 140.217 68.066C140.656 67.6133 141.199 67.387 141.848 67.387C142.497 67.387 143.04 67.6133 143.479 68.066C143.918 68.5187 144.137 69.074 144.137 69.732C144.137 70.3853 143.918 70.9383 143.479 71.391C143.04 71.8437 142.497 72.07 141.848 72.07ZM141.848 67.674C141.288 67.674 140.821 67.8723 140.448 68.269C140.079 68.6657 139.895 69.1533 139.895 69.732C139.895 70.306 140.079 70.7913 140.448 71.188C140.821 71.58 141.288 71.776 141.848 71.776C142.413 71.776 142.879 71.58 143.248 71.188C143.617 70.7913 143.801 70.306 143.801 69.732C143.801 69.1533 143.617 68.6657 143.248 68.269C142.879 67.8723 142.413 67.674 141.848 67.674ZM146.705 72H146.39V70.376L144.675 67.457H145.06L146.383 69.711C146.485 69.9163 146.544 70.026 146.558 70.04C146.586 69.9793 146.644 69.872 146.733 69.718L148.056 67.457H148.42L146.705 70.39V72ZM153.018 70.894L154.327 67.548H154.53L155.671 70.915L155.839 71.482C155.853 71.3933 155.912 71.2067 156.014 70.922L157.176 67.457H157.512L155.93 72.028H155.741C154.962 69.7927 154.558 68.6307 154.53 68.542C154.488 68.416 154.446 68.2923 154.404 68.171C154.381 68.2503 154.318 68.416 154.215 68.668L152.892 72.028H152.703L151.107 67.457H151.464L152.619 70.866C152.685 71.0527 152.745 71.2603 152.801 71.489C152.825 71.3957 152.897 71.1973 153.018 70.894ZM158.383 70.425L157.732 72H157.403L159.307 67.429H159.496L161.414 72H161.057L160.399 70.425H158.383ZM159.384 67.947C159.314 68.157 159.251 68.332 159.195 68.472L158.495 70.152H160.287L159.594 68.479C159.487 68.2177 159.417 68.0403 159.384 67.947ZM162.717 67.744H161.177V67.457H164.572V67.744H163.032V72H162.717V67.744ZM168.899 71.776C168.549 71.972 168.062 72.07 167.436 72.07C166.816 72.07 166.267 71.846 165.791 71.398C165.32 70.95 165.084 70.3947 165.084 69.732C165.084 69.0647 165.29 68.507 165.7 68.059C166.116 67.611 166.65 67.387 167.303 67.387C167.831 67.387 168.346 67.4687 168.85 67.632L168.766 67.898C168.281 67.7487 167.779 67.674 167.261 67.674C166.743 67.674 166.307 67.8723 165.952 68.269C165.602 68.661 165.427 69.144 165.427 69.718C165.427 70.2873 165.63 70.7727 166.036 71.174C166.447 71.5753 166.921 71.776 167.457 71.776C167.994 71.776 168.44 71.7013 168.794 71.552L168.899 71.776ZM173.526 72V69.704H170.369V72H170.047V67.457H170.369V69.417H173.526V67.457H173.848V72H173.526ZM175.529 72V67.457H175.851V72H175.529ZM177.532 72V67.429H177.686L180.668 70.859C180.776 70.9803 180.874 71.1017 180.962 71.223C181.056 71.3397 181.105 71.4003 181.109 71.405C181.1 71.293 181.095 71.0737 181.095 70.747V67.457H181.417V72.028H181.263L178.225 68.542L177.84 68.073C177.85 68.1663 177.854 68.3857 177.854 68.731V72H177.532ZM184.994 67.674C184.476 67.674 184.04 67.8723 183.685 68.269C183.335 68.661 183.16 69.144 183.16 69.718C183.16 70.292 183.358 70.7797 183.755 71.181C184.152 71.5777 184.618 71.776 185.155 71.776C185.696 71.776 186.116 71.713 186.415 71.587V69.718H186.737V71.734C186.373 71.958 185.857 72.07 185.19 72.07C184.523 72.07 183.96 71.8437 183.503 71.391C183.046 70.9383 182.817 70.383 182.817 69.725C182.817 69.0623 183.022 68.507 183.433 68.059C183.848 67.611 184.383 67.387 185.036 67.387C185.563 67.387 186.079 67.4687 186.583 67.632L186.499 67.898C186.014 67.7487 185.512 67.674 184.994 67.674ZM191.942 70.894L193.251 67.548H193.454L194.595 70.915L194.763 71.482C194.777 71.3933 194.836 71.2067 194.938 70.922L196.1 67.457H196.436L194.854 72.028H194.665C193.886 69.7927 193.482 68.6307 193.454 68.542C193.412 68.416 193.37 68.2923 193.328 68.171C193.305 68.2503 193.242 68.416 193.139 68.668L191.816 72.028H191.627L190.031 67.457H190.388L191.543 70.866C191.609 71.0527 191.669 71.2603 191.725 71.489C191.749 71.3957 191.821 71.1973 191.942 70.894ZM197.363 72V67.457H197.685V72H197.363ZM200.178 67.744H198.638V67.457H202.033V67.744H200.493V72H200.178V67.744ZM206.462 72V69.704H203.305V72H202.983V67.457H203.305V69.417H206.462V67.457H206.784V72H206.462ZM212.261 72H211.946V70.376L210.231 67.457H210.616L211.939 69.711C212.042 69.9163 212.1 70.026 212.114 70.04C212.142 69.9793 212.201 69.872 212.289 69.718L213.612 67.457H213.976L212.261 70.39V72ZM216.797 72.07C216.149 72.07 215.605 71.8437 215.166 71.391C214.728 70.9383 214.508 70.3853 214.508 69.732C214.508 69.074 214.728 68.5187 215.166 68.066C215.605 67.6133 216.149 67.387 216.797 67.387C217.446 67.387 217.99 67.6133 218.428 68.066C218.867 68.5187 219.086 69.074 219.086 69.732C219.086 70.3853 218.867 70.9383 218.428 71.391C217.99 71.8437 217.446 72.07 216.797 72.07ZM216.797 67.674C216.237 67.674 215.771 67.8723 215.397 68.269C215.029 68.6657 214.844 69.1533 214.844 69.732C214.844 70.306 215.029 70.7913 215.397 71.188C215.771 71.58 216.237 71.776 216.797 71.776C217.362 71.776 217.829 71.58 218.197 71.188C218.566 70.7913 218.75 70.306 218.75 69.732C218.75 69.1533 218.566 68.6657 218.197 68.269C217.829 67.8723 217.362 67.674 216.797 67.674ZM223.723 71.531C223.415 71.8903 222.946 72.07 222.316 72.07C221.686 72.07 221.217 71.8903 220.909 71.531C220.601 71.1717 220.447 70.6747 220.447 70.04V67.457H220.769V70.04C220.769 71.202 221.285 71.783 222.316 71.783C223.348 71.783 223.863 71.202 223.863 70.04V67.457H224.185V70.04C224.185 70.6747 224.031 71.1717 223.723 71.531ZM225.821 72V67.478C226.223 67.4453 226.563 67.429 226.843 67.429C227.273 67.429 227.627 67.541 227.907 67.765C228.187 67.9843 228.327 68.2993 228.327 68.71C228.327 68.9853 228.248 69.2397 228.089 69.473C227.931 69.7063 227.751 69.8953 227.55 70.04C228.106 70.7773 228.449 71.2183 228.579 71.363C228.845 71.6383 229.135 71.7947 229.447 71.832L229.44 72.049C229.179 72.0443 228.967 72.007 228.803 71.937C228.64 71.8623 228.477 71.7387 228.313 71.566C228.155 71.3933 227.802 70.929 227.256 70.173C226.878 70.173 226.507 70.1613 226.143 70.138V72H225.821ZM227.081 69.907C227.263 69.907 227.459 69.7857 227.669 69.543C227.879 69.3003 227.984 69.018 227.984 68.696C227.984 68.374 227.875 68.129 227.655 67.961C227.436 67.793 227.151 67.709 226.801 67.709C226.615 67.709 226.395 67.7183 226.143 67.737V69.872C226.479 69.8953 226.792 69.907 227.081 69.907ZM232.603 72V67.457H234.934V67.737H232.925V69.389H234.759V69.662H232.925V72H232.603ZM236.178 72V67.478C236.579 67.4453 236.92 67.429 237.2 67.429C237.629 67.429 237.984 67.541 238.264 67.765C238.544 67.9843 238.684 68.2993 238.684 68.71C238.684 68.9853 238.605 69.2397 238.446 69.473C238.287 69.7063 238.108 69.8953 237.907 70.04C238.462 70.7773 238.805 71.2183 238.936 71.363C239.202 71.6383 239.491 71.7947 239.804 71.832L239.797 72.049C239.536 72.0443 239.323 72.007 239.16 71.937C238.997 71.8623 238.833 71.7387 238.67 71.566C238.511 71.3933 238.159 70.929 237.613 70.173C237.235 70.173 236.864 70.1613 236.5 70.138V72H236.178ZM237.438 69.907C237.62 69.907 237.816 69.7857 238.026 69.543C238.236 69.3003 238.341 69.018 238.341 68.696C238.341 68.374 238.231 68.129 238.012 67.961C237.793 67.793 237.508 67.709 237.158 67.709C236.971 67.709 236.752 67.7183 236.5 67.737V69.872C236.836 69.8953 237.149 69.907 237.438 69.907ZM240.437 72V67.457H240.759V72H240.437ZM242.44 72V67.457H244.561V67.737H242.762V69.389H244.386V69.662H242.762V71.706H244.631V72H242.44ZM245.919 72V67.429H246.073L249.055 70.859C249.162 70.9803 249.26 71.1017 249.349 71.223C249.442 71.3397 249.491 71.4003 249.496 71.405C249.487 71.293 249.482 71.0737 249.482 70.747V67.457H249.804V72.028H249.65L246.612 68.542L246.227 68.073C246.236 68.1663 246.241 68.3857 246.241 68.731V72H245.919ZM252.94 71.762C253.537 71.762 254.015 71.601 254.375 71.279C254.739 70.957 254.921 70.4717 254.921 69.823C254.921 69.1743 254.715 68.6587 254.305 68.276C253.899 67.8933 253.397 67.702 252.8 67.702C252.375 67.702 252.048 67.7113 251.82 67.73V71.713C252.1 71.7457 252.473 71.762 252.94 71.762ZM252.8 67.415C253.5 67.415 254.083 67.632 254.55 68.066C255.021 68.4953 255.257 69.081 255.257 69.823C255.257 70.565 255.04 71.1227 254.606 71.496C254.176 71.8693 253.621 72.056 252.94 72.056C252.468 72.056 251.983 72.0327 251.484 71.986V67.457C251.857 67.429 252.296 67.415 252.8 67.415ZM257.575 67.653C257.323 67.653 257.118 67.7137 256.959 67.835C256.801 67.9563 256.721 68.1267 256.721 68.346C256.721 68.598 256.826 68.8243 257.036 69.025C257.186 69.1697 257.377 69.3237 257.61 69.487C257.848 69.6457 258.012 69.76 258.1 69.83C258.189 69.9 258.296 69.9957 258.422 70.117C258.651 70.3457 258.765 70.6093 258.765 70.908C258.765 71.2953 258.635 71.5893 258.373 71.79C258.117 71.986 257.755 72.084 257.288 72.084C256.826 72.084 256.439 71.9627 256.126 71.72L256.294 71.475C256.612 71.6897 256.948 71.797 257.302 71.797C257.657 71.797 257.932 71.7223 258.128 71.573C258.329 71.4237 258.429 71.2137 258.429 70.943C258.429 70.7097 258.329 70.495 258.128 70.299C257.988 70.159 257.799 70.0073 257.561 69.844C257.328 69.6807 257.165 69.564 257.071 69.494C256.978 69.4193 256.868 69.3213 256.742 69.2C256.504 68.962 256.385 68.6867 256.385 68.374C256.385 68.0613 256.495 67.8163 256.714 67.639C256.938 67.4617 257.246 67.373 257.638 67.373C258.03 67.373 258.383 67.45 258.695 67.604L258.576 67.863C258.287 67.723 257.953 67.653 257.575 67.653Z" fill="#FF3939"/>
</svg>
